<svg xmlns="http://www.w3.org/2000/svg" xmlns:xlink="http://www.w3.org/1999/xlink" version="1.1" x="0px" y="0px" viewBox="0 0 100 125" enable-background="new 0 0 100 100" xml:space="preserve"><path d="M92.541,64.401H78.14c-2.13,0-3.864,1.733-3.864,3.864v5.269c0,0.126,0.008,0.25,0.019,0.374  c-5.322-0.752-10.319-2.979-14.463-6.47L45.046,53.527c-1.966-3.33-5.582-5.634-9.846-5.634H21.164c-4.111,0-7.622,2.14-9.63,5.277  l-0.346,0.241c-3.835,2.395-6.123,6.517-6.123,11.034c0,4.789,2.622,9.177,6.863,11.462l1.554,0.794l0.679,2.915  c1.519,6.517,7.329,11.129,14.021,11.129h0c6.692,0,12.502-4.611,14.021-11.129l3.218-13.808c0.172,0.181,0.343,0.364,0.526,0.536  c2.567,2.415,5.911,3.7,9.325,3.7c1.258,0,2.525-0.175,3.767-0.532c2.495,2.003,5.26,3.591,8.203,4.724h-1.394  c-2.309,0-4.311,1.319-5.304,3.24l0-0.053l-3.31,5.62h2.643l-0.001,10.862c0,0.582,0.472,1.054,1.054,1.054h2.81  c0.582,0,1.054-0.472,1.054-1.054c0-0.582-0.472-1.054-1.054-1.054h-1.756v-3.864h15.455v4.917c0,0.582,0.472,1.054,1.054,1.054  h2.81c0.582,0,1.054-0.472,1.054-1.054c0-0.582-0.472-1.054-1.054-1.054h-1.756v-3.864h0.704c3.291,0,5.971-2.68,5.971-5.971v-6.674  h3.511c2.905,0,5.269-2.364,5.269-5.269V66.86C95,65.504,93.897,64.401,92.541,64.401z M76.384,68.265  c0-0.968,0.788-1.756,1.756-1.756h2.459v7.025c0,1.162-0.945,2.107-2.107,2.107c-1.162,0-2.107-0.945-2.107-2.107V68.265z   M7.172,64.445c0-2.727,1-5.279,2.759-7.245c-0.285,1.506-0.272,3.102,0.104,4.714l2.82,12.097  C9.349,72.096,7.172,68.438,7.172,64.445z M44.276,61.435l-4.126,17.702c-1.304,5.593-6.225,9.5-11.969,9.5  c-5.743,0-10.665-3.906-11.969-9.5l-4.126-17.702c-0.649-2.786-0.002-5.669,1.777-7.909c1.778-2.241,4.439-3.526,7.3-3.526H35.2  c2.861,0,5.521,1.285,7.3,3.526S44.926,58.649,44.276,61.435z M47.392,64.808c-0.512-0.482-0.966-1.008-1.373-1.563l0.31-1.332  c0.325-1.393,0.378-2.774,0.203-4.096l10.595,9.967C53.628,68.355,50.025,67.285,47.392,64.808z M84.112,83.017  c0,2.132-1.735,3.864-3.864,3.864H68.944c1.125-1.195,1.82-2.799,1.82-4.566h-2.107c0,2.518-2.048,4.566-4.566,4.566h-2.106v-6.674  c0-2.132,1.732-3.864,3.864-3.864h9.511c0.772,0.86,1.889,1.405,3.133,1.405c1.244,0,2.361-0.545,3.133-1.405h2.488V83.017z   M92.893,71.075c0,1.743-1.418,3.161-3.161,3.161h-7.088c0.039-0.229,0.063-0.463,0.063-0.702v-7.025h9.835  c0.194,0,0.351,0.158,0.351,0.351V71.075z M15.735,45.829h24.894c5.919,0,10.735-4.816,10.735-10.735  c0-12.02-9.779-21.799-21.799-21.799h-0.329v-2.116c1.226-0.435,2.108-1.604,2.108-2.977c0-1.743-1.418-3.161-3.161-3.161  c-1.743,0-3.161,1.418-3.161,3.161c0,1.373,0.882,2.541,2.107,2.977v2.116h-0.329C14.779,13.295,5,23.074,5,35.094  C5,41.013,9.816,45.829,15.735,45.829z M28.182,7.148c0.581,0,1.054,0.473,1.054,1.054s-0.473,1.054-1.054,1.054  c-0.581,0-1.054-0.473-1.054-1.054S27.601,7.148,28.182,7.148z M26.799,15.402h2.766c10.858,0,19.692,8.834,19.692,19.692  c0,4.757-3.87,8.627-8.627,8.627H15.735c-4.757,0-8.627-3.87-8.627-8.627C7.107,24.236,15.941,15.402,26.799,15.402z M28.182,59.029  c-2.983,0-5.41,2.427-5.41,5.41c0,2.983,2.427,5.41,5.41,5.41c2.983,0,5.409-2.427,5.409-5.41  C33.592,61.455,31.165,59.029,28.182,59.029z M28.182,67.74c-1.824,0-3.302-1.478-3.302-3.302c0-1.824,1.478-3.302,3.302-3.302  c1.824,0,3.302,1.478,3.302,3.302C31.484,66.262,30.006,67.74,28.182,67.74z M33.802,93.906c0,0.582-0.472,1.054-1.054,1.054h-9.132  c-0.582,0-1.054-0.472-1.054-1.054s0.472-1.054,1.054-1.054h9.132C33.33,92.852,33.802,93.324,33.802,93.906z M31.177,38.167h2.587  c-1.064,1.997-3.166,3.361-5.582,3.361s-4.518-1.364-5.582-3.361h2.587c0.764,0.773,1.824,1.253,2.995,1.253  C29.353,39.421,30.413,38.94,31.177,38.167z M19.029,30.974h-2.198c0.368-1.857,2.008-3.261,3.971-3.261s3.603,1.404,3.971,3.261  h-2.198c-0.303-0.679-0.983-1.154-1.773-1.154C20.012,29.821,19.332,30.295,19.029,30.974z M33.805,30.974h-2.198  c0.368-1.857,2.008-3.261,3.971-3.261s3.603,1.404,3.971,3.261H37.35c-0.303-0.679-0.983-1.154-1.773-1.154  S34.108,30.295,33.805,30.974z M16.942,35.522h22.48c2.518,0,4.566-2.048,4.566-4.566v-3.249c0-2.518-2.048-4.566-4.566-4.566  h-22.48c-2.518,0-4.566,2.048-4.566,4.566v3.249C12.376,33.474,14.425,35.522,16.942,35.522z M14.484,27.707  c0-1.356,1.103-2.459,2.459-2.459h22.48c1.356,0,2.459,1.103,2.459,2.459v3.249c0,1.356-1.103,2.459-2.459,2.459h-22.48  c-1.356,0-2.459-1.103-2.459-2.459V27.707z"/><text x="0" y="115" fill="#000000" font-size="5px" font-weight="bold" font-family="'Helvetica Neue', Helvetica, Arial-Unicode, Arial, Sans-serif">Created by Laymik</text><text x="0" y="120" fill="#000000" font-size="5px" font-weight="bold" font-family="'Helvetica Neue', Helvetica, Arial-Unicode, Arial, Sans-serif">from the Noun Project</text></svg>